# xmcd CD database file
#
# Track frame offsets:
#	150
#	18270
#	48615
#	85487
#
# Disc length: 1631 seconds
#
# Revision: 0
# Processed by: cddbd v1.5PL3 Copyright (c) Steve Scherf et al.
# Submitted via: CDex 1.51
#
DISCID=2b065d04
DTITLE=CHAGE&ASKA - Brother
DYEAR=1996
DGENRE=Dance
TTITLE0=Brother (Grant's Rezet Fury Edit)
TTITLE1=Brother (Grant's Rezet Fury Mix)
TTITLE2=Brother (Sure Is Pure Vocal Mix)
TTITLE3=Brother (Sure Is Pure Dub)
EXTD=YEAR: 1996
EXTT0=
EXTT1=
EXTT2=
EXTT3=
PLAYORDER=
